<svg width="157" height="51" viewBox="0 0 157 51" fill="none" xmlns="http://www.w3.org/2000/svg">
<path d="M39.8764 25.3933C39.8883 24.4631 40.1349 23.5511 40.5931 22.7422C41.0514 21.9332 41.7064 21.2535 42.4972 20.7663C41.9948 20.0473 41.332 19.4556 40.5615 19.0382C39.791 18.6208 38.934 18.3892 38.0585 18.3618C36.191 18.1654 34.3805 19.4816 33.4288 19.4816C32.4588 19.4816 30.9935 18.3813 29.4157 18.4138C28.3952 18.4469 27.4005 18.7442 26.5288 19.277C25.657 19.8097 24.9378 20.5597 24.4413 21.4537C22.2904 25.1852 23.8948 30.6691 25.9551 33.6853C26.9859 35.1623 28.1907 36.8121 29.7671 36.7536C31.3097 36.6895 31.8858 35.7679 33.7478 35.7679C35.5926 35.7679 36.1331 36.7536 37.7415 36.7164C39.3967 36.6894 40.4396 35.2329 41.4343 33.7419C42.1749 32.6895 42.7449 31.5264 43.1229 30.2957C42.1613 29.8881 41.3406 29.2059 40.7633 28.3341C40.186 27.4623 39.8775 26.4395 39.8764 25.3933Z" fill="white" fill-opacity="0.7"/>
<path d="M36.8391 16.3762C37.7416 15.2906 38.1862 13.8952 38.0786 12.4863C36.6997 12.6314 35.4261 13.2918 34.5113 14.3358C34.0641 14.8458 33.7216 15.4391 33.5033 16.0819C33.2851 16.7246 33.1954 17.4042 33.2394 18.0817C33.9291 18.0888 34.6114 17.939 35.2349 17.6436C35.8584 17.3482 36.4069 16.9148 36.8391 16.3762Z" fill="white" fill-opacity="0.7"/>
<path d="M59.3771 33.0141H54.113L52.8488 36.7545H50.6191L55.6052 22.916H57.9218L62.9079 36.7545H60.6402L59.3771 33.0141ZM54.6582 31.2881H58.8309L56.7739 25.2177H56.7163L54.6582 31.2881Z" fill="white" fill-opacity="0.7"/>
<path d="M73.678 31.7112C73.678 34.8465 72.0032 36.8609 69.476 36.8609C68.8358 36.8945 68.1991 36.7467 67.6388 36.4345C67.0785 36.1223 66.6173 35.6584 66.308 35.0957H66.2601V40.0931H64.1934V26.666H66.1939V28.3441H66.2319C66.5555 27.7842 67.0245 27.3226 67.5891 27.0085C68.1536 26.6945 68.7926 26.5396 69.438 26.5605C71.9934 26.5605 73.678 28.5846 73.678 31.7112ZM71.5536 31.7112C71.5536 29.6686 70.5001 28.3256 68.8928 28.3256C67.3136 28.3256 66.2515 29.6969 66.2515 31.7112C66.2515 33.7441 67.3136 35.1056 68.8928 35.1056C70.5001 35.1056 71.5536 33.7724 71.5536 31.7112Z" fill="white" fill-opacity="0.7"/>
<path d="M84.76 31.7112C84.76 34.8465 83.0853 36.8609 80.558 36.8609C79.9178 36.8945 79.2811 36.7467 78.7208 36.4345C78.1606 36.1223 77.6993 35.6584 77.39 35.0957H77.3422V40.0931H75.2754V26.666H77.2759V28.3441H77.3139C77.6375 27.7842 78.1065 27.3226 78.6711 27.0085C79.2356 26.6944 79.8746 26.5396 80.52 26.5605C83.0755 26.5605 84.76 28.5846 84.76 31.7112ZM82.6356 31.7112C82.6356 29.6686 81.5822 28.3256 79.9748 28.3256C78.3957 28.3256 77.3335 29.6968 77.3335 31.7112C77.3335 33.7441 78.3957 35.1055 79.9748 35.1055C81.5822 35.1055 82.6357 33.7724 82.6357 31.7112H82.6356Z" fill="white" fill-opacity="0.7"/>
<path d="M92.0825 32.899C92.2356 34.2713 93.566 35.1724 95.3841 35.1724C97.1261 35.1724 98.3794 34.2713 98.3794 33.0339C98.3794 31.9598 97.6235 31.3166 95.8337 30.8759L94.0439 30.4438C91.508 29.83 90.3307 28.6416 90.3307 26.7132C90.3307 24.3256 92.4072 22.6855 95.3559 22.6855C98.2741 22.6855 100.275 24.3256 100.342 26.7132H98.2556C98.1307 25.3322 96.9914 24.4986 95.3265 24.4986C93.6616 24.4986 92.5223 25.342 92.5223 26.5696C92.5223 27.5479 93.25 28.1236 95.03 28.5643L96.5516 28.9387C99.3851 29.6102 100.562 30.7507 100.562 32.7749C100.562 35.3638 98.5043 36.9854 95.2309 36.9854C92.1682 36.9854 90.1004 35.4019 89.9668 32.8989L92.0825 32.899Z" fill="white" fill-opacity="0.7"/>
<path d="M105.021 24.2793V26.667H106.936V28.307H105.021V33.8691C105.021 34.7332 105.404 35.1359 106.246 35.1359C106.473 35.1319 106.7 35.1159 106.926 35.088V36.7182C106.548 36.789 106.163 36.8211 105.778 36.814C103.739 36.814 102.944 36.0467 102.944 34.09V28.307H101.48V26.667H102.944V24.2793H105.021Z" fill="white" fill-opacity="0.7"/>
<path d="M108.049 31.7122C108.049 28.5378 109.915 26.543 112.824 26.543C115.744 26.543 117.601 28.5377 117.601 31.7122C117.601 34.8954 115.753 36.8815 112.824 36.8815C109.896 36.8815 108.049 34.8954 108.049 31.7122ZM115.495 31.7122C115.495 29.5346 114.499 28.2494 112.824 28.2494C111.15 28.2494 110.155 29.5444 110.155 31.7122C110.155 33.8986 111.15 35.174 112.824 35.174C114.499 35.174 115.495 33.8986 115.495 31.7122H115.495Z" fill="white" fill-opacity="0.7"/>
<path d="M119.303 26.6659H121.274V28.3832H121.322C121.455 27.8469 121.769 27.3729 122.21 27.0409C122.651 26.709 123.192 26.5393 123.744 26.5603C123.982 26.5595 124.219 26.5854 124.452 26.6376V28.5747C124.151 28.4827 123.837 28.4404 123.523 28.4496C123.223 28.4374 122.924 28.4904 122.646 28.6051C122.368 28.7197 122.118 28.8933 121.913 29.1138C121.709 29.3343 121.554 29.5966 121.46 29.8827C121.367 30.1687 121.336 30.4717 121.37 30.7709V36.7553H119.303L119.303 26.6659Z" fill="white" fill-opacity="0.7"/>
<path d="M133.981 33.793C133.703 35.6246 131.923 36.8815 129.646 36.8815C126.717 36.8815 124.898 34.915 124.898 31.7601C124.898 28.5954 126.726 26.543 129.559 26.543C132.344 26.543 134.096 28.4605 134.096 31.5196V32.2292H126.985V32.3543C126.952 32.7256 126.998 33.0997 127.121 33.4517C127.243 33.8036 127.439 34.1255 127.695 34.3957C127.952 34.666 128.262 34.8786 128.607 35.0194C128.951 35.1601 129.322 35.2258 129.693 35.2121C130.182 35.258 130.672 35.1446 131.091 34.8889C131.51 34.6333 131.835 34.2489 132.019 33.793L133.981 33.793ZM126.995 30.7818H132.028C132.047 30.4479 131.996 30.1138 131.88 29.8004C131.764 29.4871 131.584 29.2012 131.352 28.9607C131.12 28.7203 130.841 28.5305 130.532 28.4032C130.224 28.2759 129.892 28.2139 129.559 28.2211C129.222 28.2191 128.889 28.2839 128.577 28.4117C128.266 28.5396 127.983 28.728 127.744 28.9661C127.506 29.2041 127.317 29.4872 127.188 29.7988C127.059 30.1104 126.994 30.4445 126.995 30.7818V30.7818Z" fill="white" fill-opacity="0.7"/>
<path d="M54.8032 12.6931C55.2365 12.6619 55.6713 12.7275 56.0762 12.8851C56.4812 13.0427 56.8461 13.2885 57.1448 13.6045C57.4435 13.9206 57.6685 14.2991 57.8035 14.7129C57.9385 15.1266 57.9802 15.5652 57.9256 15.9971C57.9256 18.1214 56.7798 19.3425 54.8032 19.3425H52.4062V12.6931H54.8032ZM53.4369 18.4021H54.6881C54.9977 18.4206 55.3075 18.3698 55.5951 18.2532C55.8826 18.1366 56.1406 17.9573 56.3502 17.7282C56.5598 17.4991 56.7158 17.2261 56.8069 16.9289C56.8979 16.6318 56.9217 16.3181 56.8765 16.0106C56.9184 15.7044 56.8922 15.3926 56.7998 15.0976C56.7073 14.8027 56.5509 14.5319 56.3418 14.3046C56.1326 14.0774 55.8759 13.8993 55.59 13.7831C55.3041 13.667 54.9961 13.6156 54.6881 13.6328H53.4369V18.4021Z" fill="white" fill-opacity="0.7"/>
<path d="M59.0912 16.8341C59.0598 16.5043 59.0974 16.1716 59.2018 15.8573C59.3061 15.5429 59.4749 15.2539 59.6973 15.0088C59.9196 14.7636 60.1907 14.5678 60.493 14.4337C60.7953 14.2997 61.1223 14.2305 61.4529 14.2305C61.7835 14.2305 62.1104 14.2997 62.4128 14.4337C62.7151 14.5678 62.9861 14.7636 63.2085 15.0088C63.4309 15.2539 63.5996 15.5429 63.704 15.8573C63.8084 16.1716 63.846 16.5043 63.8145 16.8341C63.8466 17.1642 63.8094 17.4974 63.7053 17.8122C63.6012 18.1271 63.4326 18.4166 63.2101 18.6622C62.9877 18.9079 62.7165 19.1041 62.4139 19.2385C62.1112 19.3728 61.7839 19.4422 61.4529 19.4422C61.1219 19.4422 60.7946 19.3728 60.4919 19.2385C60.1893 19.1041 59.918 18.9079 59.6956 18.6622C59.4732 18.4166 59.3045 18.1271 59.2005 17.8122C59.0964 17.4974 59.0592 17.1642 59.0912 16.8341ZM62.798 16.8341C62.798 15.7464 62.3103 15.1103 61.4545 15.1103C60.5954 15.1103 60.1122 15.7464 60.1122 16.8341C60.1122 17.9305 60.5955 18.5617 61.4545 18.5617C62.3103 18.5617 62.798 17.9262 62.798 16.8341H62.798Z" fill="white" fill-opacity="0.7"/>
<path d="M70.0923 19.3422H69.0671L68.0321 15.6465H67.9539L66.9232 19.3422H65.9077L64.5273 14.3242H65.5298L66.4269 18.1533H66.5007L67.5303 14.3242H68.4784L69.508 18.1533H69.5862L70.479 14.3242H71.4673L70.0923 19.3422Z" fill="white" fill-opacity="0.7"/>
<path d="M72.627 14.3245H73.5783V15.1216H73.6522C73.7775 14.8353 73.9888 14.5953 74.2567 14.435C74.5245 14.2748 74.8357 14.2023 75.1466 14.2276C75.3903 14.2092 75.6349 14.2461 75.8625 14.3353C76.09 14.4246 76.2946 14.564 76.4611 14.7432C76.6275 14.9225 76.7516 15.1369 76.8241 15.3708C76.8966 15.6046 76.9157 15.8518 76.88 16.094V19.3424H75.8916V16.3427C75.8916 15.5363 75.5419 15.1352 74.811 15.1352C74.6456 15.1275 74.4804 15.1557 74.3269 15.2179C74.1734 15.2801 74.0351 15.3749 73.9215 15.4957C73.8079 15.6165 73.7217 15.7604 73.6689 15.9177C73.616 16.075 73.5977 16.2418 73.6153 16.4069V19.3425H72.627L72.627 14.3245Z" fill="white" fill-opacity="0.7"/>
<path d="M78.457 12.3672H79.4453V19.3441H78.457V12.3672Z" fill="white" fill-opacity="0.7"/>
<path d="M80.8178 16.8342C80.7863 16.5044 80.824 16.1717 80.9284 15.8573C81.0328 15.543 81.2016 15.254 81.424 15.0088C81.6463 14.7637 81.9174 14.5678 82.2197 14.4337C82.5221 14.2997 82.8491 14.2305 83.1797 14.2305C83.5103 14.2305 83.8373 14.2997 84.1396 14.4337C84.442 14.5678 84.713 14.7637 84.9354 15.0088C85.1578 15.254 85.3266 15.543 85.431 15.8573C85.5354 16.1717 85.573 16.5044 85.5416 16.8342C85.5736 17.1643 85.5364 17.4975 85.4323 17.8123C85.3282 18.1272 85.1595 18.4167 84.937 18.6623C84.7146 18.9079 84.4433 19.1042 84.1407 19.2385C83.838 19.3729 83.5107 19.4422 83.1797 19.4422C82.8487 19.4422 82.5213 19.3729 82.2187 19.2385C81.916 19.1042 81.6448 18.9079 81.4224 18.6623C81.1999 18.4167 81.0312 18.1272 80.9271 17.8123C80.823 17.4975 80.7857 17.1643 80.8178 16.8342ZM84.5245 16.8342C84.5245 15.7465 84.0368 15.1104 83.181 15.1104C82.322 15.1104 81.8387 15.7465 81.8387 16.8342C81.8387 17.9306 82.322 18.5618 83.181 18.5618C84.0369 18.5618 84.5245 17.9263 84.5245 16.8342H84.5245Z" fill="white" fill-opacity="0.7"/>
<path d="M86.5801 17.9262C86.5801 17.023 87.2513 16.5022 88.4427 16.4282L89.7992 16.3499V15.9167C89.7992 15.3867 89.4494 15.0875 88.7739 15.0875C88.2222 15.0875 87.8399 15.2904 87.7302 15.6452H86.7734C86.8744 14.7833 87.6835 14.2305 88.8195 14.2305C90.075 14.2305 90.7831 14.8568 90.7831 15.9167V19.3453H89.8317V18.6401H89.7535C89.5948 18.8931 89.372 19.0993 89.1077 19.2377C88.8434 19.3761 88.5472 19.4418 88.2494 19.428C88.0391 19.4499 87.8266 19.4274 87.6256 19.362C87.4246 19.2966 87.2395 19.1897 87.0822 19.0482C86.9249 18.9067 86.799 18.7338 86.7125 18.5405C86.626 18.3473 86.5809 18.138 86.5801 17.9262ZM89.7992 17.4974V17.0779L88.5763 17.1563C87.8866 17.2025 87.5738 17.4376 87.5738 17.88C87.5738 18.3316 87.9648 18.5944 88.5024 18.5944C88.66 18.6104 88.8191 18.5945 88.9703 18.5475C89.1216 18.5006 89.2619 18.4237 89.3829 18.3214C89.5039 18.219 89.6031 18.0933 89.6746 17.9518C89.7461 17.8103 89.7885 17.6557 89.7992 17.4974Z" fill="white" fill-opacity="0.7"/>
<path d="M92.084 16.8329C92.084 15.2473 92.8975 14.2428 94.1627 14.2428C94.4757 14.2284 94.7863 14.3035 95.0582 14.4594C95.3302 14.6153 95.5522 14.8455 95.6984 15.1232H95.7723V12.3672H96.7606V19.3441H95.8135V18.5513H95.7353C95.5779 18.8271 95.3481 19.0544 95.0709 19.2088C94.7937 19.3631 94.4796 19.4385 94.1627 19.4268C92.8888 19.4268 92.084 18.4223 92.084 16.8329ZM93.1049 16.8329C93.1049 17.8972 93.6056 18.5377 94.443 18.5377C95.2759 18.5377 95.7908 17.888 95.7908 16.8373C95.7908 15.7914 95.2705 15.1325 94.443 15.1325C93.611 15.1325 93.1049 15.7773 93.1049 16.8329H93.1049Z" fill="white" fill-opacity="0.7"/>
<path d="M100.849 16.8341C100.818 16.5043 100.855 16.1716 100.96 15.8573C101.064 15.5429 101.233 15.2539 101.455 15.0088C101.677 14.7636 101.948 14.5678 102.251 14.4337C102.553 14.2997 102.88 14.2305 103.211 14.2305C103.541 14.2305 103.868 14.2997 104.171 14.4337C104.473 14.5678 104.744 14.7636 104.966 15.0088C105.189 15.2539 105.357 15.5429 105.462 15.8573C105.566 16.1716 105.604 16.5043 105.572 16.8341C105.604 17.1642 105.567 17.4974 105.463 17.8122C105.359 18.1271 105.19 18.4166 104.968 18.6622C104.746 18.9079 104.474 19.1041 104.172 19.2385C103.869 19.3728 103.542 19.4422 103.211 19.4422C102.88 19.4422 102.552 19.3728 102.25 19.2385C101.947 19.1041 101.676 18.9079 101.453 18.6622C101.231 18.4166 101.062 18.1271 100.958 17.8122C100.854 17.4974 100.817 17.1642 100.849 16.8341ZM104.556 16.8341C104.556 15.7464 104.068 15.1103 103.212 15.1103C102.353 15.1103 101.87 15.7464 101.87 16.8341C101.87 17.9305 102.353 18.5617 103.212 18.5617C104.068 18.5617 104.556 17.9262 104.556 16.8341Z" fill="white" fill-opacity="0.7"/>
<path d="M106.9 14.3245H107.852V15.1216H107.926C108.051 14.8353 108.262 14.5953 108.53 14.435C108.798 14.2748 109.109 14.2023 109.42 14.2276C109.664 14.2092 109.908 14.2461 110.136 14.3353C110.363 14.4246 110.568 14.564 110.735 14.7432C110.901 14.9225 111.025 15.1369 111.098 15.3708C111.17 15.6046 111.189 15.8518 111.153 16.094V19.3424H110.165V16.3427C110.165 15.5363 109.815 15.1352 109.084 15.1352C108.919 15.1275 108.754 15.1557 108.6 15.2179C108.447 15.2801 108.309 15.3749 108.195 15.4957C108.081 15.6165 107.995 15.7604 107.942 15.9177C107.889 16.075 107.871 16.2418 107.889 16.4069V19.3425H106.9V14.3245Z" fill="white" fill-opacity="0.7"/>
<path d="M116.736 13.0742V14.3464H117.821V15.1806H116.736V17.7609C116.736 18.2865 116.952 18.5167 117.444 18.5167C117.57 18.5162 117.695 18.5086 117.821 18.4938V19.3187C117.643 19.3505 117.463 19.3674 117.283 19.3693C116.184 19.3693 115.746 18.9819 115.746 18.0144V15.1805H114.951V14.3464H115.746V13.0742H116.736Z" fill="white" fill-opacity="0.7"/>
<path d="M119.17 12.3672H120.15V15.1325H120.228C120.359 14.8435 120.576 14.6021 120.849 14.4413C121.123 14.2804 121.439 14.2079 121.755 14.2336C121.997 14.2204 122.239 14.2609 122.464 14.3523C122.689 14.4438 122.891 14.5838 123.056 14.7625C123.221 14.9412 123.344 15.1541 123.417 15.386C123.491 15.618 123.512 15.8632 123.479 16.1043V19.3441H122.49V16.3486C122.49 15.5471 122.117 15.1412 121.419 15.1412C121.249 15.1272 121.078 15.1506 120.919 15.2097C120.759 15.2689 120.614 15.3623 120.493 15.4835C120.373 15.6046 120.281 15.7506 120.223 15.9113C120.165 16.0719 120.143 16.2432 120.158 16.4134V19.3441H119.17L119.17 12.3672Z" fill="white" fill-opacity="0.7"/>
<path d="M129.243 17.9905C129.109 18.4491 128.818 18.8458 128.421 19.1112C128.024 19.3766 127.547 19.4938 127.073 19.4423C126.743 19.451 126.415 19.3877 126.112 19.2567C125.809 19.1257 125.538 18.9302 125.318 18.6838C125.098 18.4374 124.934 18.1459 124.837 17.8296C124.741 17.5133 124.715 17.1798 124.76 16.8522C124.716 16.5236 124.743 16.1893 124.839 15.8721C124.935 15.5549 125.098 15.262 125.317 15.0135C125.536 14.7649 125.806 14.5663 126.108 14.4312C126.41 14.2962 126.738 14.2277 127.069 14.2306C128.462 14.2306 129.303 15.1845 129.303 16.7602V17.1058H125.766V17.1613C125.751 17.3454 125.774 17.5308 125.834 17.7055C125.894 17.8801 125.99 18.0403 126.116 18.1756C126.242 18.311 126.394 18.4185 126.563 18.4914C126.733 18.5643 126.916 18.6009 127.1 18.5988C127.337 18.6273 127.576 18.5846 127.788 18.4763C128 18.368 128.176 18.1989 128.292 17.9905L129.243 17.9905ZM125.766 16.3734H128.296C128.308 16.2049 128.285 16.0358 128.229 15.8767C128.172 15.7177 128.083 15.5723 127.967 15.4499C127.851 15.3274 127.71 15.2307 127.555 15.1659C127.399 15.101 127.232 15.0695 127.063 15.0734C126.892 15.0713 126.723 15.1034 126.564 15.168C126.406 15.2326 126.262 15.3283 126.141 15.4494C126.02 15.5706 125.925 15.7147 125.861 15.8734C125.796 16.0321 125.764 16.2021 125.766 16.3734H125.766Z" fill="white" fill-opacity="0.7"/>
<rect x="0.339326" y="0.878388" width="155.411" height="48.8629" rx="1.01257" stroke="white" stroke-opacity="0.7" stroke-width="0.678651"/>
</svg>
