<svg width="157" height="50" viewBox="0 0 157 50" fill="none" xmlns="http://www.w3.org/2000/svg">
<rect x="1.24948" y="0.483857" width="155.411" height="48.8629" rx="1.01257" stroke="white" stroke-opacity="0.7" stroke-width="0.678651"/>
<path d="M134.972 18.2448V16.4668H126.617V29.5725H134.972V27.8167H128.39V23.4898H134.362V21.7162H128.39V18.2404H134.972V18.2448ZM125.971 15.8028H135.324L139.428 19.8713V33.4761H129.629L125.971 29.8354V15.8028ZM119.175 29.5725H122.04V16.4668H120.32V27.7053L116.252 16.4668H113.315V29.5725H115.053V18.2047L119.175 29.5725ZM112.669 15.8206H116.626L119.714 18.9266V15.8206H122.432L126.26 19.6663L126.242 33.4761H116.278L112.673 29.8354V15.8206H112.669ZM106.087 18.2225H108.6V16.4668H101.983V18.2225H104.349V27.8167H101.983V29.5725H108.6V27.8167H106.087V18.2225ZM101.319 27.1527H103.721V20.8517L101.319 18.4097V15.8028H108.917L112.945 19.8134V33.4716H104.96L101.319 29.8309V27.1483V27.1527ZM92.4733 16.4668V29.5725H99.5899V27.8167H94.2469V16.4668H92.4733ZM91.8807 15.8741H94.6524L101.604 22.8436V33.4716H95.5214L91.8807 29.8309V15.8786V15.8741ZM85.0894 29.5725H87.9547V16.4668H86.2346V27.7053L82.1661 16.4668H79.225V29.5725H80.963V18.2047L85.0849 29.5725H85.0894ZM78.5834 15.8206H82.5405L85.6286 18.9266V15.8206H88.3469L92.1748 19.6663L92.1569 33.4761H82.1929L78.5878 29.8354V15.8206H78.5834ZM74.2742 26.0432C74.2742 26.5378 74.1806 26.9166 73.9979 27.1884C73.8152 27.4602 73.5835 27.6652 73.3161 27.7989C73.0443 27.9237 72.7546 28.0039 72.4472 28.0395C72.1531 28.0663 71.8857 28.0752 71.654 28.0752C71.3955 28.0752 71.1103 28.0618 70.8028 28.0395C70.4954 28.0173 70.2057 27.9415 69.9339 27.8167C69.662 27.683 69.4348 27.4781 69.2521 27.2062C69.0783 26.921 68.9936 26.5289 68.9936 26.0253V20.1476C68.9936 19.6441 69.0783 19.2475 69.2521 18.9667C69.4348 18.6815 69.6665 18.4721 69.9339 18.3384C70.2057 18.2047 70.4954 18.1245 70.8028 18.0978C71.1103 18.0755 71.3955 18.0621 71.654 18.0621C71.8901 18.0621 72.1531 18.0799 72.4472 18.1156C72.7546 18.1423 73.0443 18.227 73.3161 18.374C73.588 18.5077 73.8152 18.7216 73.9979 19.0024C74.1851 19.2742 74.2742 19.653 74.2742 20.1476V26.0432ZM67.2512 26.1724C67.2512 26.8765 67.3626 27.4602 67.5855 27.9281C67.8083 28.3827 68.1157 28.7481 68.5079 29.0199C68.9045 29.3051 69.3635 29.5012 69.8938 29.6126C70.4374 29.7373 71.0212 29.7997 71.6495 29.7997C72.2778 29.7997 72.8259 29.7463 73.3696 29.6349C73.9133 29.5234 74.3945 29.314 74.8134 29.0065C75.1833 28.7213 75.4774 28.3515 75.7002 27.8969C75.9319 27.4424 76.0522 26.8631 76.0522 26.159V20.0407C76.0522 19.4257 75.9676 18.9088 75.7938 18.4899C75.6334 18.0576 75.4105 17.7012 75.1298 17.416C74.7109 16.9971 74.194 16.7119 73.579 16.5648C72.9775 16.4178 72.3358 16.342 71.6584 16.342C70.9811 16.342 70.3082 16.4178 69.7155 16.5648C69.1228 16.7119 68.6238 16.9837 68.2182 17.3758C67.9108 17.661 67.6701 18.022 67.4963 18.4676C67.3359 18.8999 67.2557 19.4302 67.2557 20.0585V26.1768L67.2512 26.1724ZM66.5873 20.054C66.5873 18.637 66.9883 17.5586 67.7904 16.8188C68.6059 16.0791 69.8938 15.7048 71.654 15.6914C72.6031 15.6914 73.4231 15.8162 74.1138 16.0613C74.8179 16.2974 75.3704 16.6138 75.7759 17.0238L78.8641 20.054V33.4761H71.7119L68.2361 29.9824C68.04 29.7864 67.8439 29.5636 67.6434 29.3185C67.4473 29.0734 67.2691 28.806 67.1086 28.5253C66.9616 28.2311 66.8368 27.9103 66.7388 27.5627C66.6407 27.2196 66.5917 26.8497 66.5917 26.4531V20.0585L66.5873 20.054ZM54.5912 25.749C54.5912 26.1546 54.5288 26.4932 54.4085 26.7651C54.2837 27.0235 54.1233 27.233 53.9272 27.3934C53.7311 27.5404 53.5039 27.6518 53.2454 27.7276C52.987 27.79 52.7285 27.8212 52.47 27.8212H49.3106V23.6234H52.5636C53.2142 23.6234 53.7178 23.8151 54.0609 24.1983C54.4174 24.5815 54.5956 25.0984 54.5956 25.749H54.5912ZM49.3061 18.2092H52.3363C52.8889 18.2092 53.3657 18.3562 53.7579 18.6503C54.1545 18.9355 54.3505 19.4079 54.3505 20.0763C54.3505 20.6289 54.1946 21.0745 53.8871 21.4087C53.5796 21.7296 53.0627 21.89 52.3363 21.89H49.3061V18.2047V18.2092ZM47.586 29.5769H52.5413C53.1073 29.5769 53.6242 29.4967 54.0921 29.3363C54.56 29.1625 54.961 28.9174 55.2953 28.5966C55.6384 28.2757 55.9058 27.8747 56.0885 27.3934C56.2845 26.9121 56.3826 26.364 56.3826 25.749C56.3826 25.045 56.2355 24.4434 55.9414 23.9354C55.6562 23.4185 55.2329 23.0308 54.6669 22.7723C54.9744 22.6253 55.2284 22.4515 55.4245 22.2554C55.6206 22.0459 55.7765 21.8231 55.8879 21.5914C56.0127 21.3463 56.0974 21.0923 56.1464 20.8339C56.1954 20.5754 56.2222 20.3169 56.2222 20.0585C56.2222 19.5059 56.1286 19.0068 55.9459 18.5612C55.7587 18.1156 55.5002 17.7413 55.1705 17.4338C54.8363 17.1129 54.4308 16.8723 53.9495 16.7119C53.4816 16.5381 52.9647 16.4534 52.3943 16.4534H47.5905V29.5769H47.586ZM50.5806 33.4761L46.9221 29.8176V15.785L51.2089 15.8028H52.7419C53.1607 15.8028 53.544 15.8474 53.8871 15.932C54.2302 16.0078 54.5644 16.1415 54.8853 16.3376C55.2061 16.5336 55.5671 16.8366 55.9771 17.2422L58.878 20.1253V33.4716H50.5806V33.4761ZM42.7422 18.2448V16.4668H34.3868V29.5725H42.7422V27.8167H36.1603V23.4898H42.1317V21.7162H36.1603V18.2404H42.7422V18.2448ZM33.7362 15.8028H43.0897L47.1939 19.8713V33.4761H37.3947L33.7362 29.8354V15.8028ZM25.568 29.5725H28.4155L29.3602 25.3747C29.4939 24.7687 29.6187 24.1404 29.7301 23.4898C29.8548 22.8347 29.9128 22.1529 29.9128 21.4354V16.4846H28.157V21.4399C28.157 21.6761 28.1436 21.9078 28.1214 22.144C28.108 22.3668 28.0857 22.6119 28.0456 22.8837C28.01 23.1422 27.9609 23.4363 27.8986 23.7705C27.8362 24.1047 27.7649 24.4924 27.6757 24.9336L27.0652 28.0217L25.9022 22.7367H23.1126L21.9273 28.0217L21.3168 24.9336C21.2321 24.4924 21.1563 24.1003 21.0939 23.7705C21.0316 23.4363 20.9825 23.1422 20.9469 22.8837C20.9112 22.6119 20.88 22.3668 20.8533 22.144C20.8399 21.9123 20.8355 21.6761 20.8355 21.4399V16.5069H19.0797V21.4444C19.0797 22.1573 19.1332 22.8436 19.2446 23.4987C19.3694 24.1493 19.4986 24.7821 19.6323 25.3836L20.5948 29.5814H23.4245L24.5163 24.6662L25.568 29.5814V29.5725ZM27.4351 22.0682L27.4708 21.4221V15.8206H30.2782L34.0125 19.5549V33.4761H23.5716L20.0245 29.9468L19.0084 25.5307C18.9238 25.1475 18.8436 24.791 18.7678 24.4567C18.6921 24.1136 18.6341 23.7794 18.5806 23.4586C18.5316 23.1377 18.496 22.8169 18.4692 22.496C18.447 22.1618 18.4336 21.8098 18.4336 21.4444V15.8385H21.2053L27.4351 22.0682Z" fill="white" fill-opacity="0.7"/>
</svg>
