<svg width="157" height="50" viewBox="0 0 157 50" fill="none" xmlns="http://www.w3.org/2000/svg">
<rect x="0.966279" y="0.479951" width="155.411" height="48.8629" rx="1.01257" stroke="white" stroke-opacity="0.7" stroke-width="0.678651"/>
<g clip-path="url(#clip0_128_729)">
<path d="M106.87 20.0453V13.4583H105.511V17.7114L102.321 13.4583H100.962V19.9585H102.321V15.6145L105.511 19.9585L106.87 20.0453ZM85.7463 13.4583H80.2215V14.8168H82.3501V19.9585H83.7086V14.8168H85.7463V13.4583ZM91.0934 25.9571H95.0543V35.6482H97.6528V25.9571H101.523V23.3586H91.0618V25.9571H91.0934ZM95.6427 18.7777H91.8595V17.2415H95.3465V16.0884H91.8595V14.7299H95.6427V13.4583H90.6195V19.9585H95.6427V18.7777ZM110.061 25.6609C111.419 25.6609 112.778 26.431 113.457 27.6118L115.495 25.8702C114.223 24.0379 112.217 22.9756 110.088 22.9756C106.515 22.9756 103.501 25.8702 103.501 29.5626C103.501 33.255 106.396 36.1497 110.088 36.1497C112.304 36.1497 114.342 35.0874 115.495 33.255L113.457 31.5135C112.778 32.6666 111.419 33.4643 110.061 33.4643C107.932 33.4643 106.191 31.7228 106.191 29.5942C106.191 27.4657 107.932 25.6649 110.061 25.6649V25.6609ZM130.181 34.2581H130.655V35.6166H130.951V34.2581H131.425V33.9619H130.067V34.2581H130.185H130.181ZM115.084 18.6H113.635V14.8168H115.084C116.146 14.8168 117.035 15.6737 117.035 16.7676C117.035 17.8615 116.15 18.6 115.084 18.6ZM115.084 13.4583H112.367V19.9585H115.084C116.916 19.9585 118.48 18.5091 118.48 16.6807C118.362 14.9076 116.912 13.4622 115.084 13.4622V13.4583ZM133.195 33.9935L132.812 35.2651L132.428 33.9935H131.955V35.6482H132.251V34.3766L132.725 35.6482H133.021L133.495 34.3766V35.6482H133.791V33.9935H133.199H133.195ZM126.517 28.1726H120.814V23.327H118.303V35.6166H120.814V30.6842H126.517V35.6166H129.028V23.327H126.517V28.1726ZM126.134 18.7777C124.98 18.7777 124.096 17.9207 124.096 16.74C124.096 15.5592 124.953 14.7022 126.134 14.7022C127.314 14.7022 128.171 15.5592 128.171 16.74C128.14 17.8023 127.196 18.7777 126.134 18.7777ZM126.134 13.2529C124.183 13.2529 122.647 14.7891 122.647 16.74C122.647 18.6908 124.183 20.227 126.134 20.227C128.084 20.227 129.621 18.6908 129.621 16.74C129.502 14.8207 127.966 13.2529 126.134 13.2529ZM85.3593 35.6205H88.0763V23.331H85.3593V35.6205ZM64.8556 13.4583H63.4063V19.9585H64.8556V13.4583ZM77.236 32.248L74.6375 23.3547H72.4221L69.8236 32.248L67.4897 23.3547H64.7727L68.2597 35.6442H71.2729L73.6068 27.517L75.9407 35.6442H78.9539L82.4409 23.3547H79.7239L77.24 32.248H77.236ZM54.0114 15.6737L57.2023 20.0177H58.4739V13.4267H57.1154V17.6798L53.9246 13.4267H52.5661V19.9269H53.9246L54.0114 15.6737ZM57.7631 28.1726C56.0215 27.8764 54.8684 27.5802 54.8684 26.7232C54.8684 25.7478 56.14 25.3648 57.8815 25.3648C59.4177 25.3648 61.0724 25.9571 61.6648 26.2217L62.5217 24.0932C61.9294 23.797 59.9232 23.1177 57.7631 23.1177C55.1646 23.1177 52.2383 24.3893 52.2383 26.8101C52.2383 28.761 53.5968 29.7048 57.1707 30.3841C59.6823 30.7671 61.0408 31.0633 60.9539 32.1256C60.9539 32.718 60.48 33.6618 57.6762 33.6618C55.4608 33.6618 53.8061 32.8917 53.3322 32.5087L52.1791 34.6372C52.7714 34.9334 54.896 35.9088 57.5854 35.9088C61.4555 35.9088 63.584 34.5503 63.584 32.0387C63.3787 30.5894 62.9048 29.0256 57.7631 28.1686V28.1726ZM71.032 15.6737L74.2229 20.0177H75.4945V13.4267H74.2229V17.6798L71.032 13.4267H69.6735V19.9269H71.032V15.6737ZM32.7969 34.3766H29.4007C28.3384 34.3766 27.2722 33.9935 26.5061 33.2234C25.7399 32.4534 25.3529 31.3911 25.3529 30.3288V19.0107C25.3529 17.9484 25.736 16.8821 26.5061 16.116C27.2761 15.3499 28.3384 14.9629 29.4007 14.9629H32.7969V34.3766ZM34.5385 12.9844H29.5153C26.2375 12.9844 23.6074 15.7013 23.6074 18.983V30.3011C23.6074 33.5789 26.3244 36.209 29.5153 36.209H34.5385C34.6293 36.209 34.7438 36.1221 34.7438 36.0036V13.1621C34.7438 13.0752 34.6254 12.9844 34.5385 12.9844ZM41.5995 28.0817C40.3279 28.0817 39.2656 27.0194 39.2656 25.7478C39.2656 24.4762 40.3279 23.4139 41.5995 23.4139C42.8711 23.4139 43.9334 24.4762 43.9334 25.7478C43.9334 27.0194 42.8711 28.0817 41.5995 28.0817ZM40.7465 12.9844H37.1725C37.0857 12.9844 36.9672 13.0713 36.9672 13.1897V36.1181C36.9672 36.205 37.0541 36.3235 37.1725 36.3235H40.7465C44.0242 36.3235 46.7451 33.6065 46.7451 30.4156V18.983C46.7451 15.6737 44.0282 12.9844 40.7465 12.9844ZM27.0945 19.9269C27.0945 21.08 28.0699 22.1423 29.3099 22.1423C30.5499 22.1423 31.5253 21.1669 31.5253 19.9269C31.5253 18.6869 30.5499 17.7114 29.3099 17.7114C28.0699 17.7114 27.0945 18.7737 27.0945 19.9269Z" fill="white" fill-opacity="0.7"/>
</g>
<defs>
<clipPath id="clip0_128_729">
<rect width="110.18" height="23.3431" fill="white" transform="translate(23.6074 12.9844)"/>
</clipPath>
</defs>
</svg>
