<svg width="32" height="36" viewBox="0 0 32 36" fill="none" xmlns="http://www.w3.org/2000/svg">
<path d="M15.2651 17.3337L0.910156 32.6222C0.910696 32.6254 0.911774 32.6281 0.912313 32.6312C1.35254 34.2912 2.8636 35.5137 4.65701 35.5137C5.37391 35.5137 6.04699 35.3192 6.62421 34.9778L6.67005 34.9508L22.8283 25.5948L15.2651 17.3337Z" fill="#EB3131"/>
<path d="M29.7903 14.729L29.7766 14.7195L22.8006 10.6615L14.9414 17.6791L22.828 25.5918L29.7671 21.5742C30.9837 20.9151 31.8096 19.6282 31.8096 18.1441C31.8096 16.6707 30.9948 15.3902 29.7903 14.729Z" fill="#F6B60B"/>
<path d="M0.910947 3.6061C0.824655 3.9254 0.779297 4.25985 0.779297 4.60715V31.6226C0.779297 31.9693 0.824115 32.3049 0.911486 32.623L15.7604 17.7256L0.910947 3.6061Z" fill="#5778C5"/>
<path d="M15.3714 18.1133L22.8015 10.6598L6.66155 1.26994C6.0749 0.917355 5.39022 0.713871 4.65755 0.713871C2.86414 0.713871 1.35106 1.93844 0.910695 3.60056C0.910156 3.60218 0.910156 3.60327 0.910156 3.60475L15.3714 18.1133Z" fill="#3BAD49"/>
</svg>
