<svg width="150" height="47" viewBox="0 0 150 47" fill="none" xmlns="http://www.w3.org/2000/svg">
<rect width="149.321" height="46.603" fill="#ADF217"/>
<path d="M52.3377 16.6278C51.8702 16.6278 51.4403 16.5528 51.0479 16.4028C50.6555 16.247 50.315 16.0306 50.0264 15.7536C49.7379 15.4708 49.5128 15.1418 49.3512 14.7667C49.1897 14.3916 49.1089 13.979 49.1089 13.5289C49.1089 13.0788 49.1897 12.6661 49.3512 12.291C49.5128 11.9159 49.7379 11.5899 50.0264 11.3129C50.3207 11.0301 50.6641 10.8137 51.0565 10.6637C51.4489 10.5078 51.8818 10.4299 52.355 10.4299C52.834 10.4299 53.2725 10.5078 53.6707 10.6637C54.0689 10.8195 54.4065 11.0532 54.6835 11.3648L54.1468 11.9015C53.8987 11.6591 53.6274 11.4831 53.3331 11.3735C53.0446 11.2581 52.7301 11.2003 52.3896 11.2003C52.0433 11.2003 51.7202 11.2581 51.4201 11.3735C51.1258 11.4889 50.869 11.6505 50.6497 11.8582C50.4362 12.066 50.2688 12.3141 50.1476 12.6027C50.0322 12.8854 49.9745 13.1942 49.9745 13.5289C49.9745 13.8578 50.0322 14.1666 50.1476 14.4551C50.2688 14.7379 50.4362 14.986 50.6497 15.1996C50.869 15.4073 51.1258 15.5689 51.4201 15.6843C51.7144 15.7997 52.0347 15.8574 52.3809 15.8574C52.7041 15.8574 53.0129 15.8084 53.3072 15.7103C53.6073 15.6064 53.8843 15.4362 54.1382 15.1996L54.6316 15.8574C54.3315 16.1114 53.9795 16.3047 53.5755 16.4374C53.1773 16.5644 52.7647 16.6278 52.3377 16.6278ZM53.8006 15.7449V13.4943H54.6316V15.8574L53.8006 15.7449ZM57.0766 13.1134H60.1929V13.8492H57.0766V13.1134ZM57.1546 15.8055H60.6863V16.5586H56.2889V10.4992H60.5651V11.2523H57.1546V15.8055ZM63.2912 16.5586V11.2523H61.2137V10.4992H66.2257V11.2523H64.1482V16.5586H63.2912ZM69.4932 16.5586V10.4992H70.3588V16.5586H69.4932ZM73.3761 16.5586V11.2523H71.2986V10.4992H76.3106V11.2523H74.2331V16.5586H73.3761ZM82.3135 16.6278C81.8518 16.6278 81.4219 16.5499 81.0237 16.3941C80.6313 16.2383 80.2908 16.0219 80.0022 15.7449C79.7137 15.4621 79.4886 15.1332 79.3271 14.7581C79.1655 14.383 79.0847 13.9732 79.0847 13.5289C79.0847 13.0845 79.1655 12.6748 79.3271 12.2997C79.4886 11.9246 79.7137 11.5985 80.0022 11.3215C80.2908 11.0388 80.6313 10.8195 81.0237 10.6637C81.4161 10.5078 81.846 10.4299 82.3135 10.4299C82.7751 10.4299 83.1993 10.5078 83.586 10.6637C83.9784 10.8137 84.3189 11.0301 84.6074 11.3129C84.9017 11.5899 85.1268 11.9159 85.2826 12.291C85.4442 12.6661 85.525 13.0788 85.525 13.5289C85.525 13.979 85.4442 14.3916 85.2826 14.7667C85.1268 15.1418 84.9017 15.4708 84.6074 15.7536C84.3189 16.0306 83.9784 16.247 83.586 16.4028C83.1993 16.5528 82.7751 16.6278 82.3135 16.6278ZM82.3135 15.8574C82.6482 15.8574 82.9569 15.7997 83.2397 15.6843C83.5282 15.5689 83.7764 15.4073 83.9841 15.1996C84.1977 14.986 84.3621 14.7379 84.4776 14.4551C84.5987 14.1723 84.6593 13.8636 84.6593 13.5289C84.6593 13.1942 84.5987 12.8854 84.4776 12.6027C84.3621 12.3199 84.1977 12.0746 83.9841 11.8669C83.7764 11.6534 83.5282 11.4889 83.2397 11.3735C82.9569 11.2581 82.6482 11.2003 82.3135 11.2003C81.973 11.2003 81.6585 11.2581 81.3699 11.3735C81.0872 11.4889 80.839 11.6534 80.6255 11.8669C80.412 12.0746 80.2446 12.3199 80.1234 12.6027C80.008 12.8854 79.9503 13.1942 79.9503 13.5289C79.9503 13.8636 80.008 14.1723 80.1234 14.4551C80.2446 14.7379 80.412 14.986 80.6255 15.1996C80.839 15.4073 81.0872 15.5689 81.3699 15.6843C81.6585 15.7997 81.973 15.8574 82.3135 15.8574ZM86.848 16.5586V10.4992H87.5578L91.5657 15.4766H91.1935V10.4992H92.0591V16.5586H91.3493L87.3414 11.5812H87.7137V16.5586H86.848Z" fill="black"/>
<path d="M115.113 34.3146H117.086V21.275H115.113V34.3146ZM132.88 25.9722L130.619 31.6255H130.551L128.204 25.9722H126.08L129.599 33.8737L127.592 38.2689H129.651L135.074 25.9722H132.88ZM121.694 32.8336C121.047 32.8336 120.146 32.5149 120.146 31.7262C120.146 30.7197 121.269 30.3339 122.237 30.3339C123.105 30.3339 123.512 30.5184 124.039 30.7703C123.886 31.978 122.832 32.8336 121.694 32.8336ZM121.931 25.6869C120.503 25.6869 119.024 26.3078 118.412 27.6834L120.163 28.4046C120.537 27.6834 121.234 27.4483 121.965 27.4483C122.985 27.4483 124.022 28.0526 124.039 29.1262V29.2602C123.682 29.0589 122.918 28.757 121.982 28.757C120.095 28.757 118.173 29.7801 118.173 31.6927C118.173 33.4374 119.721 34.5615 121.455 34.5615C122.781 34.5615 123.512 33.9744 123.972 33.2867H124.039V34.293H125.943V29.2936C125.943 26.9789 124.193 25.6869 121.931 25.6869ZM109.741 27.5595H106.935V23.0898H109.741C111.215 23.0898 112.053 24.2946 112.053 25.3246C112.053 26.3351 111.215 27.5595 109.741 27.5595ZM109.69 21.275H104.964V34.3146H106.935V29.3743H109.69C111.876 29.3743 114.025 27.8125 114.025 25.3246C114.025 22.8368 111.876 21.275 109.69 21.275ZM83.9164 32.836C82.5537 32.836 81.4127 31.7102 81.4127 30.1639C81.4127 28.6014 82.5537 27.4585 83.9164 27.4585C85.2618 27.4585 86.3177 28.6014 86.3177 30.1639C86.3177 31.7102 85.2618 32.836 83.9164 32.836ZM86.1814 26.7023H86.1132C85.6706 26.1815 84.8187 25.711 83.7459 25.711C81.4978 25.711 79.4373 27.6602 79.4373 30.1639C79.4373 32.651 81.4978 34.5835 83.7459 34.5835C84.8187 34.5835 85.6706 34.1129 86.1132 33.5755H86.1814V34.214C86.1814 35.9115 85.2618 36.8188 83.7802 36.8188C82.571 36.8188 81.8216 35.9615 81.5147 35.2391L79.7949 35.9449C80.2888 37.1211 81.6003 38.5664 83.7802 38.5664C86.0963 38.5664 88.0548 37.2218 88.0548 33.9451V25.9799H86.1814V26.7023ZM89.4171 34.3146H91.3927V21.2746H89.4171V34.3146ZM94.305 30.0128C94.2539 28.2986 95.6504 27.425 96.6551 27.425C97.4391 27.425 98.1029 27.8113 98.3239 28.3663L94.305 30.0128ZM100.436 28.5341C100.062 27.5424 98.9201 25.711 96.5869 25.711C94.2708 25.711 92.3465 27.509 92.3465 30.1473C92.3465 32.6344 94.2539 34.5835 96.8083 34.5835C98.8693 34.5835 100.062 33.34 100.555 32.6176L99.0226 31.6091C98.512 32.3487 97.8133 32.836 96.8083 32.836C95.8036 32.836 95.0885 32.3821 94.6284 31.4918L100.64 29.0382L100.436 28.5341ZM52.5399 27.0722V28.9542H57.104C56.9677 30.0128 56.6101 30.7857 56.0651 31.3235C55.4011 31.9791 54.3621 32.7015 52.5399 32.7015C49.7297 32.7015 47.5329 30.4666 47.5329 27.694C47.5329 24.9213 49.7297 22.6861 52.5399 22.6861C54.0557 22.6861 55.1624 23.2744 55.98 24.0306L57.3253 22.7032C56.1844 21.6274 54.6685 20.804 52.5399 20.804C48.6908 20.804 45.4551 23.8961 45.4551 27.694C45.4551 31.4918 48.6908 34.5835 52.5399 34.5835C54.6178 34.5835 56.1844 33.9117 57.4105 32.651C58.6707 31.4075 59.0626 29.6599 59.0626 28.2486C59.0626 27.8113 59.0287 27.4084 58.9602 27.0722H52.5399ZM64.2516 32.836C62.8889 32.836 61.7137 31.7269 61.7137 30.1473C61.7137 28.5508 62.8889 27.4585 64.2516 27.4585C65.6138 27.4585 66.789 28.5508 66.789 30.1473C66.789 31.7269 65.6138 32.836 64.2516 32.836ZM64.2516 25.711C61.7648 25.711 59.7381 27.5762 59.7381 30.1473C59.7381 32.7015 61.7648 34.5835 64.2516 34.5835C66.7378 34.5835 68.7645 32.7015 68.7645 30.1473C68.7645 27.5762 66.7378 25.711 64.2516 25.711ZM74.0967 32.836C72.7345 32.836 71.5592 31.7269 71.5592 30.1473C71.5592 28.5508 72.7345 27.4585 74.0967 27.4585C75.459 27.4585 76.6342 28.5508 76.6342 30.1473C76.6342 31.7269 75.459 32.836 74.0967 32.836ZM74.0967 25.711C71.6101 25.711 69.5838 27.5762 69.5838 30.1473C69.5838 32.7015 71.6101 34.5835 74.0967 34.5835C76.5831 34.5835 78.6098 32.7015 78.6098 30.1473C78.6098 27.5762 76.5831 25.711 74.0967 25.711Z" fill="black"/>
<path d="M23.7289 23.1837L12.4746 34.9701C12.475 34.9726 12.4759 34.9746 12.4763 34.977C12.8214 36.2568 14.0061 37.1992 15.4122 37.1992C15.9742 37.1992 16.5019 37.0493 16.9545 36.7861L16.9904 36.7653L29.6586 29.5524L23.7289 23.1837Z" fill="#EB3131"/>
<path d="M35.1163 21.1763L35.1055 21.169L29.6363 18.0406L23.4746 23.4506L29.6577 29.5508L35.0981 26.4535C36.0519 25.9454 36.6994 24.9532 36.6994 23.8091C36.6994 22.6733 36.0606 21.686 35.1163 21.1763Z" fill="#F6B60B"/>
<path d="M12.4743 12.6006C12.4067 12.8468 12.3711 13.1046 12.3711 13.3723V34.1995C12.3711 34.4667 12.4062 34.7254 12.4747 34.9707L24.1164 23.4858L12.4743 12.6006Z" fill="#5778C5"/>
<path d="M23.8123 23.7852L29.6375 18.039L16.9837 10.8001C16.5238 10.5283 15.987 10.3714 15.4126 10.3714C14.0065 10.3714 12.8203 11.3154 12.475 12.5968C12.4746 12.5981 12.4746 12.5989 12.4746 12.6001L23.8123 23.7852Z" fill="#3BAD49"/>
</svg>
