<svg width="220" height="64" viewBox="0 0 220 64" fill="none" xmlns="http://www.w3.org/2000/svg">
<path fill-rule="evenodd" clip-rule="evenodd" d="M179.003 4.08346C176.574 1.33463 172.526 -0.0136734 168.502 0.000104521C164.705 0.0131017 160.908 1.2381 158.489 3.67051C155.265 6.91079 154.288 12.0003 154.288 17.2509V19.7032L157.275 19.4112V44.7564L154.288 44.4644V47.3596C154.288 52.2225 155.135 56.3832 157.319 59.3301C159.508 62.2832 163.028 64 168.332 64C174.012 64 177.552 61.9305 179.667 58.7467C181.729 55.6437 182.426 51.4966 182.457 47.2181L185.441 47.5098C185.443 47.3124 185.445 47.1147 185.445 46.9167V16.6574L182.458 16.9494V16.2974C182.458 11.1419 181.507 6.91667 179.003 4.08346ZM176.99 17.4839L174.003 17.7759V17.0681C174.003 14.0512 173.526 11.845 172.604 10.3839C170.55 7.12623 165.494 7.55231 163.826 10.9363C163.114 12.3814 162.743 14.4109 162.743 17.0681V18.8767L165.73 18.5847V45.5829L162.743 45.2909V47.8797C162.743 50.5543 163.318 52.5896 164.302 53.9534C165.282 55.3135 166.674 56.0129 168.332 56.0129C170.032 56.0129 171.444 55.3128 172.435 53.953C173.428 52.5894 174.003 50.5543 174.003 47.8797V46.3917L176.99 46.6837V17.4839Z" fill="white"/>
<path d="M148.881 0.678269V20.2318L151.868 19.9398V44.2278L148.881 43.9358V63.4893H140.435V43.1101L143.422 43.4021V20.7655L140.435 21.0575V0.678269H148.881Z" fill="white"/>
<path d="M119.51 20.7468C119.924 21.4297 120.428 22.1554 121.041 22.9535L123.821 22.6817C125.085 24.3636 126.837 26.3651 129.232 28.9811C131.57 31.5351 133.359 33.6073 134.721 35.4447C136.384 37.6891 137.55 40.2277 138.23 42.8946L135.165 42.5949C135.556 44.0452 135.804 45.5356 135.908 47.0391C136.222 51.5408 135.524 57.1733 132.18 60.5985C130.006 62.825 126.783 64 122.287 64C118.468 64 115.24 62.8936 112.966 60.7963C110.691 58.6982 109.382 55.6183 109.382 51.6939V45.158H117.847V48.8427C117.847 50.9136 118.217 52.7108 118.989 53.9867C119.757 55.2568 120.922 56.0128 122.534 56.0128C124.424 56.0128 125.674 55.4254 126.487 54.4429C127.085 53.7212 127.454 52.7778 127.661 51.6752C128.407 47.7106 127.424 44.5751 125.544 41.6543L128.727 41.9655C127.768 40.415 126.551 38.9304 125.197 37.4213C124.3 36.422 123.262 35.3104 122.061 34.0614L122.06 34.061C118.854 30.6954 115.971 27.5119 114.2 23.6223L111.343 23.9016C110.115 21.3076 109.382 18.4038 109.382 14.9198C109.382 12.1993 109.702 9.88357 110.344 7.94875C112.207 2.33245 117.662 -0.120095 123.086 0.166062C128.659 0.460119 132.726 3.0416 134.378 7.43434C135.304 9.89472 135.257 12.5642 135.211 15.1562C135.191 16.3066 135.191 16.3634 135.191 17.1746V17.1769C135.191 17.3253 135.191 17.499 135.191 17.7092H127.222V14.1979C127.222 12.7298 126.98 11.4354 126.474 10.4262C125.678 8.83776 124.068 8.09905 122.466 8.14711C120.744 8.19874 119.05 9.15737 118.401 10.9264C118.03 11.9362 117.847 13.248 117.847 14.9009C117.847 17.0066 118.259 18.6798 119.51 20.7468Z" fill="white"/>
<path d="M104.644 0.678269V24.5564L107.631 24.2644V39.9032L104.644 39.6112V49.2456C104.644 52.8966 103.961 56.5858 101.855 59.3641C99.7448 62.148 96.2194 64 90.575 64C84.8896 64 81.3435 62.1482 79.2228 59.3643C77.1063 56.586 76.4232 52.8966 76.4232 49.2456V36.8523L79.4101 37.1443V27.0233L76.4232 27.3153V0.678269H84.8932V26.4872L87.8801 26.1953V37.9724L84.8932 37.6804V49.1364C84.8932 51.2522 85.2643 52.9701 86.1538 54.1574C87.0387 55.3386 88.4502 56.0118 90.575 56.0118C92.6578 56.0118 94.0487 55.3391 94.9236 54.1579C95.8032 52.9704 96.1742 51.2521 96.1742 49.1364V38.7832L99.1611 39.0752V25.0924L96.1742 25.3844V0.678269H104.644Z" fill="white"/>
<path fill-rule="evenodd" clip-rule="evenodd" d="M187.762 63.4893V47.7368L190.749 48.0288V16.1388L187.762 16.4308V0.678269H199.337L202.198 15.0196L205.127 14.7332L212.038 49.3722V14.0577L209.051 14.3497V0.678269H217.013V13.5713L220 13.2793V50.8883L217.013 50.5963V63.4893H204.943L202.028 49.1314L205.075 49.4293L198.216 15.6556V48.7588L195.229 48.4668V63.4893H187.762ZM195.238 15.6999L195.229 15.6556V15.7008L195.238 15.6999Z" fill="white"/>
<path d="M49.2837 0.678269H71.9429V9.18775H57.7445V27.8146H70.3979V36.3241H57.7445V63.4893H49.2837V0.678269Z" fill="white"/>
<path d="M8.44569 0.678269H0V63.4893H8.44569V0.678269Z" fill="white"/>
<path d="M14.265 0.678269H25.8395L35.5536 49.3722V0.678269H43.5159V63.4893H31.4462L21.7322 14.6343V63.4893H14.265V0.678269Z" fill="white"/>
</svg>
