<svg width="46" height="46" viewBox="0 0 46 46" fill="none" xmlns="http://www.w3.org/2000/svg">
<rect x="0.5" y="0.5" width="45" height="45" rx="1.5" stroke="white"/>
<path d="M14.5248 13C15.9185 13 17.0471 14.0795 17.0471 15.4072C17.0471 16.7349 15.9185 17.8145 14.5248 17.8145C13.1286 17.8145 12 16.7349 12 15.4072C12 14.0795 13.1286 13 14.5248 13ZM12.3459 19.6386H16.7037V32.9952H12.3459V19.6386Z" fill="#FEFEFE"/>
<path d="M23.6077 19.641V21.4675H23.6632C24.2465 20.4169 25.6654 19.3084 27.7837 19.3084C32.1895 19.3084 33 22.0747 33 25.6723V33H28.6523V26.5036C28.6523 24.9542 28.6194 22.9615 26.39 22.9615C24.1253 22.9615 23.7794 24.6506 23.7794 26.3904V32.9976H19.4317V19.641H23.6077Z" fill="#FEFEFE"/>
</svg>
