<svg width="31" height="81" viewBox="0 0 31 81" fill="none" xmlns="http://www.w3.org/2000/svg">
<path d="M9.48592 80V80.2527H9.23325V80H9.48592ZM9.48592 2V1.74734H9.73858V2H9.48592ZM0.821341 2.17866C0.722672 2.07999 0.722672 1.92001 0.821341 1.82134L2.42927 0.213414C2.52794 0.114744 2.68792 0.114744 2.78658 0.213414C2.88526 0.312084 2.88526 0.472061 2.78658 0.570731L1.35732 2L2.78658 3.42927C2.88526 3.52794 2.88526 3.68792 2.78658 3.78659C2.68792 3.88526 2.52794 3.88526 2.42927 3.78659L0.821341 2.17866ZM31 80.2527H9.48592V79.7473H31V80.2527ZM9.23325 80V2H9.73858V80H9.23325ZM9.48592 2.25266H1V1.74734H9.48592V2.25266Z" fill="black"/>
</svg>
