<svg width="31" height="147" viewBox="0 0 31 147" fill="none" xmlns="http://www.w3.org/2000/svg">
<path d="M21.5141 1V0.747345H21.7667V1H21.5141ZM21.5141 145V145.253H21.2614V145H21.5141ZM30.1787 144.821C30.2773 144.92 30.2773 145.08 30.1787 145.179L28.5707 146.787C28.4721 146.885 28.3121 146.885 28.2134 146.787C28.1147 146.688 28.1147 146.528 28.2134 146.429L29.6427 145L28.2134 143.571C28.1147 143.472 28.1147 143.312 28.2134 143.213C28.3121 143.115 28.4721 143.115 28.5707 143.213L30.1787 144.821ZM0 0.747345H21.5141V1.25266H0V0.747345ZM21.7667 1V145H21.2614V1H21.7667ZM21.5141 144.747H30V145.253H21.5141V144.747Z" fill="black"/>
</svg>
