<svg width="31" height="81" viewBox="0 0 31 81" fill="none" xmlns="http://www.w3.org/2000/svg">
<path d="M21.5141 80V80.2527H21.7667V80H21.5141ZM21.5141 2V1.74734H21.2614V2H21.5141ZM30.1787 2.17866C30.2773 2.07999 30.2773 1.92001 30.1787 1.82134L28.5707 0.213414C28.4721 0.114744 28.3121 0.114744 28.2134 0.213414C28.1147 0.312084 28.1147 0.472061 28.2134 0.570731L29.6427 2L28.2134 3.42927C28.1147 3.52794 28.1147 3.68792 28.2134 3.78659C28.3121 3.88526 28.4721 3.88526 28.5707 3.78659L30.1787 2.17866ZM0 80.2527H21.5141V79.7473H0V80.2527ZM21.7667 80V2H21.2614V80H21.7667ZM21.5141 2.25266H30V1.74734H21.5141V2.25266Z" fill="black"/>
</svg>
