<svg width="31" height="147" viewBox="0 0 31 147" fill="none" xmlns="http://www.w3.org/2000/svg">
<path d="M9.48592 1V0.747345H9.23325V1H9.48592ZM9.48592 145V145.253H9.73858V145H9.48592ZM0.821341 144.821C0.722672 144.92 0.722672 145.08 0.821341 145.179L2.42927 146.787C2.52794 146.885 2.68792 146.885 2.78658 146.787C2.88526 146.688 2.88526 146.528 2.78658 146.429L1.35732 145L2.78658 143.571C2.88526 143.472 2.88526 143.312 2.78658 143.213C2.68792 143.115 2.52794 143.115 2.42927 143.213L0.821341 144.821ZM31 0.747345H9.48592V1.25266H31V0.747345ZM9.23325 1V145H9.73858V1H9.23325ZM9.48592 144.747H1V145.253H9.48592V144.747Z" fill="black"/>
</svg>
