<svg width="191" height="98" viewBox="0 0 191 98" fill="none" xmlns="http://www.w3.org/2000/svg">
<rect x="0.414042" y="37.6777" width="189.631" height="59.622" stroke="#B2B2B2" stroke-width="0.828084"/>
<path d="M4.256 21.14C3.64 21.14 3.10333 21.0233 2.646 20.79C2.198 20.5567 1.848 20.2207 1.596 19.782C1.35333 19.334 1.232 18.8067 1.232 18.2V13.58C1.232 12.964 1.35333 12.4367 1.596 11.998C1.848 11.5593 2.198 11.2233 2.646 10.99C3.10333 10.7567 3.64 10.64 4.256 10.64C4.872 10.64 5.404 10.7613 5.852 11.004C6.3 11.2373 6.64533 11.5733 6.888 12.012C7.13067 12.4507 7.252 12.9733 7.252 13.58H5.992C5.992 13.0013 5.838 12.558 5.53 12.25C5.23133 11.9327 4.80667 11.774 4.256 11.774C3.70533 11.774 3.27133 11.928 2.954 12.236C2.646 12.544 2.492 12.9873 2.492 13.566V18.2C2.492 18.7787 2.646 19.2267 2.954 19.544C3.27133 19.852 3.70533 20.006 4.256 20.006C4.80667 20.006 5.23133 19.852 5.53 19.544C5.838 19.2267 5.992 18.7787 5.992 18.2H7.252C7.252 18.7973 7.13067 19.32 6.888 19.768C6.64533 20.2067 6.3 20.5473 5.852 20.79C5.404 21.0233 4.872 21.14 4.256 21.14ZM12.5945 21.112C11.9785 21.112 11.4465 20.9953 10.9985 20.762C10.5505 20.5287 10.2005 20.1927 9.94853 19.754C9.70586 19.306 9.58453 18.7787 9.58453 18.172V16.128C9.58453 15.512 9.70586 14.9847 9.94853 14.546C10.2005 14.1073 10.5505 13.7713 10.9985 13.538C11.4465 13.3047 11.9785 13.188 12.5945 13.188C13.2105 13.188 13.7425 13.3047 14.1905 13.538C14.6385 13.7713 14.9839 14.1073 15.2265 14.546C15.4785 14.9847 15.6045 15.5073 15.6045 16.114V18.172C15.6045 18.7787 15.4785 19.306 15.2265 19.754C14.9839 20.1927 14.6385 20.5287 14.1905 20.762C13.7425 20.9953 13.2105 21.112 12.5945 21.112ZM12.5945 19.992C13.1452 19.992 13.5745 19.838 13.8825 19.53C14.1905 19.222 14.3445 18.7693 14.3445 18.172V16.128C14.3445 15.5307 14.1905 15.078 13.8825 14.77C13.5745 14.462 13.1452 14.308 12.5945 14.308C12.0532 14.308 11.6239 14.462 11.3065 14.77C10.9985 15.078 10.8445 15.5307 10.8445 16.128V18.172C10.8445 18.7693 10.9985 19.222 11.3065 19.53C11.6239 19.838 12.0532 19.992 12.5945 19.992ZM17.7131 21V13.3H18.8191V14.224H19.0711L18.8751 14.56C18.8751 14.1307 18.9871 13.79 19.2111 13.538C19.4444 13.286 19.7571 13.16 20.1491 13.16C20.5784 13.16 20.9097 13.3187 21.1431 13.636C21.3764 13.9533 21.4931 14.4013 21.4931 14.98L21.1151 14.224H21.7031L21.4371 14.56C21.4371 14.1307 21.5537 13.79 21.7871 13.538C22.0297 13.286 22.3471 13.16 22.7391 13.16C23.2244 13.16 23.5977 13.342 23.8591 13.706C24.1297 14.07 24.2651 14.5507 24.2651 15.148V21H23.1031V15.134C23.1031 14.8167 23.0331 14.5693 22.8931 14.392C22.7624 14.2147 22.5664 14.126 22.3051 14.126C22.0531 14.126 21.8524 14.2147 21.7031 14.392C21.5631 14.56 21.4931 14.8027 21.4931 15.12V21H20.4851V15.134C20.4851 14.8073 20.4104 14.56 20.2611 14.392C20.1211 14.2147 19.9204 14.126 19.6591 14.126C19.3977 14.126 19.2017 14.2147 19.0711 14.392C18.9404 14.56 18.8751 14.8027 18.8751 15.12V21H17.7131ZM26.3736 21V19.852H29.1036V14.448H26.7236V13.3H30.3636V19.852H32.9536V21H26.3736ZM29.5936 11.914C29.2856 11.914 29.0429 11.8347 28.8656 11.676C28.6883 11.5173 28.5996 11.3027 28.5996 11.032C28.5996 10.752 28.6883 10.5327 28.8656 10.374C29.0429 10.206 29.2856 10.122 29.5936 10.122C29.9016 10.122 30.1443 10.206 30.3216 10.374C30.4989 10.5327 30.5876 10.752 30.5876 11.032C30.5876 11.3027 30.4989 11.5173 30.3216 11.676C30.1443 11.8347 29.9016 11.914 29.5936 11.914ZM34.8661 21V13.3H36.1261V14.77H36.3921L36.1261 15.064C36.1261 14.4573 36.3081 13.9907 36.6721 13.664C37.0361 13.328 37.5401 13.16 38.1841 13.16C38.9588 13.16 39.5748 13.398 40.0321 13.874C40.4895 14.35 40.7181 14.9987 40.7181 15.82V21H39.4581V15.96C39.4581 15.4093 39.3088 14.9893 39.0101 14.7C38.7208 14.4013 38.3241 14.252 37.8201 14.252C37.2975 14.252 36.8821 14.4107 36.5741 14.728C36.2755 15.0453 36.1261 15.5027 36.1261 16.1V21H34.8661ZM44.2267 23.52V22.372H46.6767C47.0687 22.372 47.3533 22.2833 47.5307 22.106C47.7173 21.9287 47.8107 21.6533 47.8107 21.28V20.3L47.8387 18.9H47.5867L47.8247 18.69C47.8247 19.25 47.638 19.6933 47.2647 20.02C46.8913 20.3467 46.392 20.51 45.7667 20.51C44.9733 20.51 44.348 20.2533 43.8907 19.74C43.4333 19.2173 43.2047 18.5173 43.2047 17.64V16.016C43.2047 15.1387 43.4333 14.4433 43.8907 13.93C44.348 13.4167 44.9733 13.16 45.7667 13.16C46.392 13.16 46.8913 13.3233 47.2647 13.65C47.638 13.9767 47.8247 14.42 47.8247 14.98L47.5867 14.77H47.8247V13.3H49.0707V21.28C49.0707 21.9707 48.856 22.5167 48.4267 22.918C48.0067 23.3193 47.4187 23.52 46.6627 23.52H44.2267ZM46.1447 19.418C46.6673 19.418 47.078 19.2547 47.3767 18.928C47.6753 18.6013 47.8247 18.1487 47.8247 17.57V16.1C47.8247 15.5213 47.6753 15.0687 47.3767 14.742C47.078 14.4153 46.6673 14.252 46.1447 14.252C45.6127 14.252 45.1973 14.4107 44.8987 14.728C44.6093 15.0453 44.4647 15.5027 44.4647 16.1V17.57C44.4647 18.1673 44.6093 18.6247 44.8987 18.942C45.1973 19.2593 45.6127 19.418 46.1447 19.418ZM62.7237 21.112C62.2011 21.112 61.7437 21.0327 61.3517 20.874C60.9691 20.706 60.6611 20.4727 60.4277 20.174C60.2037 19.8753 60.0684 19.5207 60.0217 19.11H61.2817C61.3377 19.3807 61.4871 19.5953 61.7297 19.754C61.9817 19.9127 62.3131 19.992 62.7237 19.992H63.3117C63.8064 19.992 64.1751 19.894 64.4177 19.698C64.6604 19.4927 64.7817 19.222 64.7817 18.886C64.7817 18.5593 64.6697 18.3027 64.4457 18.116C64.2311 17.92 63.9091 17.7893 63.4797 17.724L62.4437 17.556C61.6877 17.4253 61.1231 17.192 60.7497 16.856C60.3857 16.5107 60.2037 16.0113 60.2037 15.358C60.2037 14.6673 60.4231 14.1353 60.8617 13.762C61.3004 13.3793 61.9584 13.188 62.8357 13.188H63.3677C64.1051 13.188 64.6977 13.3607 65.1457 13.706C65.5937 14.0513 65.8644 14.518 65.9577 15.106H64.6977C64.6417 14.8633 64.5017 14.672 64.2777 14.532C64.0537 14.3827 63.7504 14.308 63.3677 14.308H62.8357C62.3597 14.308 62.0097 14.3967 61.7857 14.574C61.5711 14.7513 61.4637 15.0173 61.4637 15.372C61.4637 15.6893 61.5571 15.9227 61.7437 16.072C61.9304 16.2213 62.2244 16.3287 62.6257 16.394L63.6617 16.562C64.4924 16.6927 65.0944 16.9353 65.4677 17.29C65.8504 17.6447 66.0417 18.158 66.0417 18.83C66.0417 19.5393 65.8131 20.0993 65.3557 20.51C64.9077 20.9113 64.2264 21.112 63.3117 21.112H62.7237ZM71.3563 21.112C70.7403 21.112 70.2083 20.9953 69.7603 20.762C69.3123 20.5287 68.9623 20.1927 68.7103 19.754C68.4676 19.306 68.3463 18.7787 68.3463 18.172V16.128C68.3463 15.512 68.4676 14.9847 68.7103 14.546C68.9623 14.1073 69.3123 13.7713 69.7603 13.538C70.2083 13.3047 70.7403 13.188 71.3563 13.188C71.9723 13.188 72.5043 13.3047 72.9523 13.538C73.4003 13.7713 73.7456 14.1073 73.9883 14.546C74.2403 14.9847 74.3663 15.5073 74.3663 16.114V18.172C74.3663 18.7787 74.2403 19.306 73.9883 19.754C73.7456 20.1927 73.4003 20.5287 72.9523 20.762C72.5043 20.9953 71.9723 21.112 71.3563 21.112ZM71.3563 19.992C71.9069 19.992 72.3363 19.838 72.6443 19.53C72.9523 19.222 73.1063 18.7693 73.1063 18.172V16.128C73.1063 15.5307 72.9523 15.078 72.6443 14.77C72.3363 14.462 71.9069 14.308 71.3563 14.308C70.8149 14.308 70.3856 14.462 70.0683 14.77C69.7603 15.078 69.6063 15.5307 69.6063 16.128V18.172C69.6063 18.7693 69.7603 19.222 70.0683 19.53C70.3856 19.838 70.8149 19.992 71.3563 19.992ZM79.7508 21.112C79.1348 21.112 78.6028 20.9953 78.1548 20.762C77.7068 20.5287 77.3568 20.1927 77.1048 19.754C76.8621 19.306 76.7408 18.7787 76.7408 18.172V16.128C76.7408 15.512 76.8621 14.9847 77.1048 14.546C77.3568 14.1073 77.7068 13.7713 78.1548 13.538C78.6028 13.3047 79.1348 13.188 79.7508 13.188C80.3668 13.188 80.8988 13.3047 81.3468 13.538C81.7948 13.7713 82.1401 14.1073 82.3828 14.546C82.6348 14.9847 82.7608 15.5073 82.7608 16.114V18.172C82.7608 18.7787 82.6348 19.306 82.3828 19.754C82.1401 20.1927 81.7948 20.5287 81.3468 20.762C80.8988 20.9953 80.3668 21.112 79.7508 21.112ZM79.7508 19.992C80.3014 19.992 80.7308 19.838 81.0388 19.53C81.3468 19.222 81.5008 18.7693 81.5008 18.172V16.128C81.5008 15.5307 81.3468 15.078 81.0388 14.77C80.7308 14.462 80.3014 14.308 79.7508 14.308C79.2094 14.308 78.7801 14.462 78.4628 14.77C78.1548 15.078 78.0008 15.5307 78.0008 16.128V18.172C78.0008 18.7693 78.1548 19.222 78.4628 19.53C78.7801 19.838 79.2094 19.992 79.7508 19.992ZM85.2333 21V13.3H86.4933V14.77H86.7593L86.4933 15.064C86.4933 14.4573 86.6753 13.9907 87.0393 13.664C87.4033 13.328 87.9073 13.16 88.5513 13.16C89.326 13.16 89.942 13.398 90.3993 13.874C90.8566 14.35 91.0853 14.9987 91.0853 15.82V21H89.8253V15.96C89.8253 15.4093 89.676 14.9893 89.3773 14.7C89.088 14.4013 88.6913 14.252 88.1873 14.252C87.6646 14.252 87.2493 14.4107 86.9413 14.728C86.6426 15.0453 86.4933 15.5027 86.4933 16.1V21H85.2333Z" fill="white"/>
<path d="M66.7557 59.1567C66.1595 59.1567 65.6111 59.061 65.1106 58.8696C64.6101 58.6709 64.1758 58.3949 63.8078 58.0415C63.4397 57.6809 63.1526 57.2613 62.9465 56.7828C62.7404 56.3044 62.6374 55.7781 62.6374 55.204C62.6374 54.6298 62.7404 54.1035 62.9465 53.6251C63.1526 53.1466 63.4397 52.7308 63.8078 52.3774C64.1832 52.0168 64.6211 51.7407 65.1216 51.5494C65.6222 51.3506 66.1742 51.2512 66.7778 51.2512C67.3888 51.2512 67.9482 51.3506 68.4561 51.5494C68.964 51.7481 69.3946 52.0462 69.7479 52.4437L69.0633 53.1282C68.7468 52.8191 68.4009 52.5946 68.0255 52.4547C67.6574 52.3075 67.2563 52.2339 66.822 52.2339C66.3803 52.2339 65.9681 52.3075 65.5854 52.4547C65.21 52.6019 64.8824 52.808 64.6027 53.073C64.3304 53.338 64.1169 53.6545 63.9623 54.0226C63.8151 54.3832 63.7415 54.777 63.7415 55.204C63.7415 55.6235 63.8151 56.0173 63.9623 56.3854C64.1169 56.746 64.3304 57.0626 64.6027 57.3349C64.8824 57.5999 65.21 57.806 65.5854 57.9532C65.9608 58.1004 66.3693 58.174 66.8109 58.174C67.2231 58.174 67.6169 58.1115 67.9923 57.9863C68.3751 57.8538 68.7284 57.6367 69.0523 57.3349L69.6816 58.174C69.2989 58.4979 68.8499 58.7445 68.3346 58.9138C67.8267 59.0757 67.3004 59.1567 66.7557 59.1567ZM68.6217 58.0305V55.1598H69.6816V58.174L68.6217 58.0305ZM72.8003 54.674H76.7751V55.6125H72.8003V54.674ZM72.8997 58.1078H77.4045V59.0684H71.7956V51.3396H77.2499V52.3002H72.8997V58.1078ZM80.727 59.0684V52.3002H78.0771V51.3396H84.4699V52.3002H81.82V59.0684H80.727ZM88.6376 59.0684V51.3396H89.7417V59.0684H88.6376ZM93.5903 59.0684V52.3002H90.9404V51.3396H97.3332V52.3002H94.6834V59.0684H93.5903ZM104.99 59.1567C104.401 59.1567 103.853 59.0573 103.345 58.8586C102.844 58.6598 102.41 58.3838 102.042 58.0305C101.674 57.6698 101.387 57.2503 101.181 56.7718C100.975 56.2934 100.872 55.7707 100.872 55.204C100.872 54.6372 100.975 54.1146 101.181 53.6361C101.387 53.1577 101.674 52.7418 102.042 52.3885C102.41 52.0278 102.844 51.7481 103.345 51.5494C103.845 51.3506 104.394 51.2512 104.99 51.2512C105.579 51.2512 106.12 51.3506 106.613 51.5494C107.113 51.7407 107.548 52.0168 107.916 52.3774C108.291 52.7308 108.578 53.1466 108.777 53.6251C108.983 54.1035 109.086 54.6298 109.086 55.204C109.086 55.7781 108.983 56.3044 108.777 56.7828C108.578 57.2613 108.291 57.6809 107.916 58.0415C107.548 58.3949 107.113 58.6709 106.613 58.8696C106.12 59.061 105.579 59.1567 104.99 59.1567ZM104.99 58.174C105.417 58.174 105.811 58.1004 106.171 57.9532C106.539 57.806 106.856 57.5999 107.121 57.3349C107.393 57.0626 107.603 56.746 107.75 56.3854C107.905 56.0247 107.982 55.6309 107.982 55.204C107.982 54.777 107.905 54.3832 107.75 54.0226C107.603 53.6619 107.393 53.3491 107.121 53.0841C106.856 52.8117 106.539 52.6019 106.171 52.4547C105.811 52.3075 105.417 52.2339 104.99 52.2339C104.556 52.2339 104.154 52.3075 103.786 52.4547C103.426 52.6019 103.109 52.8117 102.837 53.0841C102.565 53.3491 102.351 53.6619 102.197 54.0226C102.049 54.3832 101.976 54.777 101.976 55.204C101.976 55.6309 102.049 56.0247 102.197 56.3854C102.351 56.746 102.565 57.0626 102.837 57.3349C103.109 57.5999 103.426 57.806 103.786 57.9532C104.154 58.1004 104.556 58.174 104.99 58.174ZM110.774 59.0684V51.3396H111.679L116.791 57.6882H116.316V51.3396H117.42V59.0684H116.515L111.403 52.7197H111.878V59.0684H110.774Z" fill="#B2B2B2"/>
<path d="M146.831 81.7798H149.347V64.8657H146.831V81.7798ZM169.493 70.9585L166.609 78.2917H166.523L163.529 70.9585H160.819L165.308 81.2079L162.749 86.909H165.374L172.291 70.9585H169.493ZM155.225 79.8587C154.4 79.8587 153.251 79.4454 153.251 78.4222C153.251 77.1167 154.683 76.6162 155.918 76.6162C157.025 76.6162 157.544 76.8556 158.217 77.1823C158.021 78.7488 156.677 79.8587 155.225 79.8587ZM155.528 70.5885C153.706 70.5885 151.82 71.3939 151.039 73.1783L153.272 74.1137C153.75 73.1783 154.638 72.8733 155.571 72.8733C156.872 72.8733 158.195 73.6571 158.217 75.0497V75.2236C157.761 74.9625 156.786 74.5709 155.593 74.5709C153.186 74.5709 150.735 75.8979 150.735 78.3788C150.735 80.642 152.709 82.1001 154.92 82.1001C156.612 82.1001 157.544 81.3385 158.13 80.4464H158.217V81.7518H160.645V75.2669C160.645 72.2645 158.412 70.5885 155.528 70.5885ZM139.979 73.0175H136.4V67.2198H139.979C141.86 67.2198 142.928 68.7825 142.928 70.1186C142.928 71.4294 141.86 73.0175 139.979 73.0175ZM139.914 64.8657H133.886V81.7798H136.4V75.3716H139.914C142.703 75.3716 145.444 73.3458 145.444 70.1186C145.444 66.8916 142.703 64.8657 139.914 64.8657ZM107.04 79.8618C105.302 79.8618 103.846 78.4015 103.846 76.3958C103.846 74.369 105.302 72.8866 107.04 72.8866C108.756 72.8866 110.103 74.369 110.103 76.3958C110.103 78.4015 108.756 79.8618 107.04 79.8618ZM109.929 71.9056H109.842C109.277 71.2301 108.191 70.6197 106.822 70.6197C103.955 70.6197 101.327 73.1481 101.327 76.3958C101.327 79.6219 103.955 82.1286 106.822 82.1286C108.191 82.1286 109.277 81.5182 109.842 80.8211H109.929V81.6493C109.929 83.8511 108.756 85.0281 106.866 85.0281C105.324 85.0281 104.368 83.9161 103.977 82.979L101.783 83.8944C102.413 85.4202 104.086 87.2949 106.866 87.2949C109.82 87.2949 112.318 85.5508 112.318 81.3005V70.9685H109.929V71.9056ZM114.056 81.7798H116.576V64.8652H114.056V81.7798ZM120.291 76.1998C120.225 73.9763 122.007 72.8431 123.288 72.8431C124.288 72.8431 125.135 73.3441 125.417 74.0641L120.291 76.1998ZM128.111 74.2818C127.633 72.9953 126.177 70.6197 123.201 70.6197C120.247 70.6197 117.792 72.952 117.792 76.3742C117.792 79.6003 120.225 82.1286 123.483 82.1286C126.112 82.1286 127.633 80.5156 128.263 79.5785L126.308 78.2704C125.657 79.2297 124.765 79.8618 123.483 79.8618C122.202 79.8618 121.29 79.2731 120.703 78.1182L128.371 74.9355L128.111 74.2818ZM67.0191 72.3854V74.8266H72.8406C72.6668 76.1998 72.2107 77.2024 71.5155 77.9C70.6686 78.7503 69.3434 79.6874 67.0191 79.6874C63.4348 79.6874 60.6327 76.7885 60.6327 73.1919C60.6327 69.5954 63.4348 66.696 67.0191 66.696C68.9525 66.696 70.3641 67.4591 71.4069 68.4401L73.123 66.7182C71.6677 65.3229 69.7341 64.2548 67.0191 64.2548C62.1096 64.2548 57.9824 68.2657 57.9824 73.1919C57.9824 78.1182 62.1096 82.1286 67.0191 82.1286C69.6694 82.1286 71.6677 81.2572 73.2315 79.6219C74.839 78.0089 75.3389 75.7421 75.3389 73.9113C75.3389 73.3441 75.2956 72.8215 75.2082 72.3854H67.0191ZM81.9574 79.8618C80.2192 79.8618 78.7203 78.4232 78.7203 76.3742C78.7203 74.3034 80.2192 72.8866 81.9574 72.8866C83.6949 72.8866 85.1938 74.3034 85.1938 76.3742C85.1938 78.4232 83.6949 79.8618 81.9574 79.8618ZM81.9574 70.6197C78.7855 70.6197 76.2005 73.0392 76.2005 76.3742C76.2005 79.6874 78.7855 82.1286 81.9574 82.1286C85.1286 82.1286 87.7137 79.6874 87.7137 76.3742C87.7137 73.0392 85.1286 70.6197 81.9574 70.6197ZM94.5149 79.8618C92.7774 79.8618 91.2783 78.4232 91.2783 76.3742C91.2783 74.3034 92.7774 72.8866 94.5149 72.8866C96.2525 72.8866 97.7515 74.3034 97.7515 76.3742C97.7515 78.4232 96.2525 79.8618 94.5149 79.8618ZM94.5149 70.6197C91.3432 70.6197 88.7586 73.0392 88.7586 76.3742C88.7586 79.6874 91.3432 82.1286 94.5149 82.1286C97.6862 82.1286 100.271 79.6874 100.271 76.3742C100.271 73.0392 97.6862 70.6197 94.5149 70.6197Z" fill="#B2B2B2"/>
<path d="M30.2651 67.3337L15.9102 82.6222C15.9107 82.6254 15.9118 82.6281 15.9123 82.6312C16.3525 84.2912 17.8636 85.5137 19.657 85.5137C20.3739 85.5137 21.047 85.3192 21.6242 84.9778L21.67 84.9508L37.8283 75.5948L30.2651 67.3337Z" fill="#EB3131"/>
<path d="M44.7903 64.729L44.7766 64.7195L37.8006 60.6615L29.9414 67.6791L37.828 75.5918L44.7671 71.5742C45.9837 70.9151 46.8096 69.6282 46.8096 68.1441C46.8096 66.6707 45.9948 65.3902 44.7903 64.729Z" fill="#F6B60B"/>
<path d="M15.9109 53.6061C15.8247 53.9254 15.7793 54.2598 15.7793 54.6072V81.6226C15.7793 81.9693 15.8241 82.3049 15.9115 82.623L30.7604 67.7256L15.9109 53.6061Z" fill="#5778C5"/>
<path d="M30.3714 68.1133L37.8015 60.6598L21.6616 51.2699C21.0749 50.9174 20.3902 50.7139 19.6575 50.7139C17.8641 50.7139 16.3511 51.9384 15.9107 53.6006C15.9102 53.6022 15.9102 53.6033 15.9102 53.6048L30.3714 68.1133Z" fill="#3BAD49"/>
</svg>
