<svg width="44" height="40" viewBox="0 0 44 40" fill="none" xmlns="http://www.w3.org/2000/svg">
<path d="M16.7131 13.0811L19.6291 15.997L13.7972 21.8289L19.6291 27.6608L16.7131 30.5767L7.96531 21.8289L16.7131 13.0811ZM26.433 30.5767L23.517 27.6608L29.3489 21.8289L23.517 15.997L26.433 13.0811L35.1808 21.8289L26.433 30.5767ZM39.0687 0.445312H4.07738C3.04624 0.445313 2.05733 0.854932 1.3282 1.58406C0.599073 2.31319 0.189453 3.3021 0.189453 4.33324V35.4367C0.189453 36.4678 0.599073 37.4567 1.3282 38.1858C2.05733 38.915 3.04624 39.3246 4.07738 39.3246H39.0687C40.0999 39.3246 41.0888 38.915 41.8179 38.1858C42.547 37.4567 42.9566 36.4678 42.9566 35.4367V4.33324C42.9566 3.3021 42.547 2.31319 41.8179 1.58406C41.0888 0.854932 40.0999 0.445313 39.0687 0.445312ZM39.0687 35.4367H4.07738V8.22117H39.0687V35.4367Z" fill="black" stroke="white" stroke-width="0.368683"/>
</svg>
