<svg width="91" height="174" viewBox="0 0 91 174" fill="none" xmlns="http://www.w3.org/2000/svg">
<path d="M90.3291 3.06061C90.473 2.91663 90.473 2.68319 90.3291 2.53921L87.9828 0.192931C87.8388 0.0489517 87.6054 0.0489517 87.4614 0.192931C87.3174 0.336911 87.3174 0.570348 87.4614 0.714327L89.547 2.79991L87.4614 4.8855C87.3174 5.02948 87.3174 5.26291 87.4614 5.40689C87.6054 5.55087 87.8388 5.55087 87.9828 5.40689L90.3291 3.06061ZM44.3517 2.79991V2.43123H43.983V2.79991H44.3517ZM44.3517 173.5V173.869H44.7204V173.5H44.3517ZM90.0684 2.43123H44.3517V3.16859H90.0684V2.43123ZM43.983 2.79991V173.5H44.7204V2.79991H43.983ZM44.3517 173.131H0.294121V173.869H44.3517V173.131Z" fill="black"/>
</svg>
