<svg width="145" height="193" viewBox="0 0 145 193" fill="none" xmlns="http://www.w3.org/2000/svg">
<path d="M99.8991 0.365784V-0.00289899H100.268V0.365784H99.8991ZM99.8991 189.5V189.869H99.5304V189.5H99.8991ZM144.217 189.239C144.361 189.383 144.361 189.617 144.217 189.761L141.871 192.107C141.727 192.251 141.494 192.251 141.35 192.107C141.206 191.963 141.206 191.73 141.35 191.586L143.435 189.5L141.35 187.414C141.206 187.27 141.206 187.037 141.35 186.893C141.494 186.749 141.727 186.749 141.871 186.893L144.217 189.239ZM0.539062 -0.00289899H99.8991V0.734466H0.539062V-0.00289899ZM100.268 0.365784V39.0775H99.5304V0.365784H100.268ZM100.268 39.0775V189.5H99.5304V39.0775H100.268ZM99.8991 189.131H143.957V189.869H99.8991V189.131Z" fill="black"/>
</svg>
