<svg width="43" height="39" viewBox="0 0 43 39" fill="none" xmlns="http://www.w3.org/2000/svg">
<path d="M8.65353 10.0422V9.4108C8.65353 7.05346 8.65353 5.87392 9.1123 4.97354C9.51585 4.18154 10.1593 3.53809 10.9513 3.13455C11.8517 2.67578 13.0312 2.67578 15.3885 2.67578H33.4878C35.8451 2.67578 37.0221 2.67578 37.9225 3.13455C38.7145 3.53809 39.3601 4.18154 39.7637 4.97354C40.222 5.87304 40.222 7.05116 40.222 9.40388V23.307C40.222 25.6597 40.222 26.8362 39.7637 27.7357C39.3601 28.5277 38.7149 29.1733 37.9229 29.5768C37.0234 30.0351 35.8466 30.0351 33.4939 30.0351H18.1241M2.33984 29.6146V17.8291C2.33984 15.4717 2.33984 14.2922 2.79861 13.3918C3.20215 12.5998 3.8456 11.9563 4.6376 11.5528C5.53798 11.094 6.71753 11.094 9.07486 11.094H10.3376C12.6949 11.094 13.872 11.094 14.7723 11.5528C15.5643 11.9563 16.2099 12.5998 16.6135 13.3918C17.0718 14.2913 17.0718 15.4694 17.0718 17.8221V29.6207C17.0718 31.9734 17.0718 33.1498 16.6135 34.0493C16.2099 34.8413 15.5643 35.4869 14.7723 35.8905C13.8728 36.3488 12.6964 36.3488 10.3437 36.3488H9.06794C6.71522 36.3488 5.5371 36.3488 4.6376 35.8905C3.8456 35.4869 3.20215 34.8413 2.79861 34.0493C2.33984 33.149 2.33984 31.9719 2.33984 29.6146Z" stroke="black" stroke-width="3.70403" stroke-linecap="round" stroke-linejoin="round"/>
</svg>
