<svg width="89" height="72" viewBox="0 0 89 72" fill="none" xmlns="http://www.w3.org/2000/svg">
<path d="M88.8544 68.9659C88.9984 69.1099 88.9984 69.3433 88.8544 69.4873L86.5082 71.8336C86.3642 71.9775 86.1307 71.9775 85.9868 71.8336C85.8428 71.6896 85.8428 71.4561 85.9868 71.3122L88.0724 69.2266L85.9868 67.141C85.8428 66.997 85.8428 66.7636 85.9868 66.6196C86.1307 66.4756 86.3642 66.4756 86.5082 66.6196L88.8544 68.9659ZM44.5362 69.2266V69.5953H44.1675V69.2266H44.5362ZM44.5362 0.835938V0.467255H44.9048V0.835938H44.5362ZM88.5938 69.5953H44.5362V68.8579H88.5938V69.5953ZM44.1675 69.2266V0.835938H44.9048V69.2266H44.1675ZM44.5362 1.20462H0.109894V0.467255H44.5362V1.20462Z" fill="black"/>
</svg>
