<svg width="158" height="42" viewBox="0 0 158 42" fill="none" xmlns="http://www.w3.org/2000/svg">
<path d="M112.715 41.1789V41.5476H113.083V41.1789H112.715ZM112.715 2.83594V2.46725H112.346V2.83594H112.715ZM157.402 3.09664C157.546 2.95266 157.546 2.71922 157.402 2.57524L155.055 0.228957C154.911 0.0849777 154.678 0.0849777 154.534 0.228957C154.39 0.372937 154.39 0.606374 154.534 0.750353L156.619 2.83594L154.534 4.92152C154.39 5.0655 154.39 5.29894 154.534 5.44292C154.678 5.5869 154.911 5.5869 155.055 5.44292L157.402 3.09664ZM0.0820312 41.5476H112.715V40.8103H0.0820312V41.5476ZM113.083 41.1789V2.83594H112.346V41.1789H113.083ZM112.715 3.20462H157.141V2.46725H112.715V3.20462Z" fill="black"/>
</svg>
